<?xml version="1.0" encoding="utf-8"?>
<!-- Generator: Adobe Illustrator 27.0.0, SVG Export Plug-In . SVG Version: 6.00 Build 0)  -->
<svg version="1.1" id="Layer_1" xmlns="http://www.w3.org/2000/svg" xmlns:xlink="http://www.w3.org/1999/xlink" x="0px" y="0px"
	 viewBox="0 0 569.4 99.5" style="enable-background:new 0 0 569.4 99.5;" xml:space="preserve">
<style type="text/css">
	.st0{fill:#FCC112;}
	.st1{fill:#FFF7FB;}
</style>
<g>
	<g>
		<g>
			<path class="st0" d="M353.7,92.1h11.1c2,0,3.6-1.6,3.6-3.6V60.1h35.9c2,0,3.6-1.6,3.6-3.6v-9.4c0-2-1.6-3.6-3.6-3.6h-35.9V26
				h41.2c2,0,3.6-1.6,3.6-3.6v-9.4c0-2-1.6-3.6-3.6-3.6h-55.8c-2,0-3.6,1.6-3.6,3.6v75.5C350.2,90.5,351.8,92.1,353.7,92.1z"/>
			<path class="st0" d="M446,28.2c-9.2,0-15.5,1.5-21.5,3.8c-1.8,0.7-2.6,2.6-2.1,4.4l2.3,7.1c0.6,1.9,2.6,2.9,4.5,2.3
				c4.4-1.4,8.6-2.3,14.1-2.3c9,0,13.6,4.1,13.6,11.6v1.1c-4.5-1.5-9.1-2.6-15.5-2.6c-15,0-25.5,6.4-25.5,20.2v0.2
				c0,12.5,9.8,19.4,21.7,19.4c8.7,0,14.7-3.2,19.1-8v3.3c0,2,1.6,3.6,3.6,3.6h10.2c2,0,3.6-1.6,3.6-3.6V55.4
				C474.2,38.3,465.6,28.2,446,28.2z M457.2,69.8c0,6.5-5.7,11.1-14,11.1c-5.8,0-9.8-2.8-9.8-7.7V73c0-5.7,4.7-8.7,12.4-8.7
				c4.4,0,8.4,0.9,11.4,2.4V69.8z"/>
			<path class="st0" d="M491.1,92.1h10.8c2,0,3.6-1.6,3.6-3.6V32.4c0-2-1.6-3.6-3.6-3.6h-10.8c-2,0-3.6,1.6-3.6,3.6v56.1
				C487.5,90.5,489.1,92.1,491.1,92.1z"/>
			<path class="st0" d="M490.6,21.9h11.8c2,0,3.6-1.6,3.6-3.6V9.5c0-2-1.6-3.6-3.6-3.6h-11.8c-2,0-3.6,1.6-3.6,3.6v8.8
				C487.1,20.3,488.6,21.9,490.6,21.9z"/>
			<path class="st0" d="M537.3,41.6v-9.2c0-2-1.6-3.6-3.6-3.6h-10.8c-2,0-3.6,1.6-3.6,3.6v56.1c0,2,1.6,3.6,3.6,3.6h10.8
				c2,0,3.6-1.6,3.6-3.6V68.7c0-13.6,5.9-20.8,15.8-22.1c2-0.3,3.6-1.9,3.7-4l0.7-11.3c0-2.1-1.8-3.8-3.9-3.5
				C545.4,28.8,540.5,34,537.3,41.6z"/>
		</g>
	</g>
	<g>
		<g>
			<g>
				<g>
					<path class="st1" d="M227.5,27.7c-19.7,0-34.3,14.7-34.3,32.9v0.2c0,18.2,14.5,32.7,34.1,32.7c19.7,0,34.3-14.7,34.3-32.9v-0.2
						C261.6,42.2,247.1,27.7,227.5,27.7z M243.9,60.8c0,9.3-6.1,17.2-16.4,17.2c-9.9,0-16.6-8.1-16.6-17.5v-0.2
						c0-9.3,6.1-17.2,16.4-17.2c9.9,0,16.6,8.1,16.6,17.5V60.8z"/>
				</g>
			</g>
			<g>
				<g>
					<path class="st1" d="M317.3,37.1c-4.2-5.1-10.1-9.4-19.7-9.4c-15,0-28.8,11.6-28.8,32.7v0.2c0,21.1,14,32.7,28.8,32.7
						c9.3,0,15.3-4.4,19.7-10.3v5.5c0,2,1.6,3.6,3.6,3.6h10.8c2,0,3.6-1.6,3.6-3.6v-79c0-2-1.6-3.6-3.6-3.6h-10.8
						c-2,0-3.6,1.6-3.6,3.6V37.1z M317.5,60.6c0,10.5-7,17.5-15.3,17.5c-8.4,0-15.5-7-15.5-17.5v-0.2c0-10.6,7.1-17.5,15.5-17.5
						c8.4,0,15.3,7,15.3,17.5V60.6z"/>
				</g>
			</g>
			<g>
				<path class="st1" d="M91.4,92.2h11.7c2,0,3.6-1.6,3.6-3.6V69.3c-6,2.4-12.3,4.2-18.8,5.3v14C87.9,90.6,89.5,92.2,91.4,92.2z"/>
			</g>
			<g>
				<path class="st1" d="M39.1,92.2h11.7c2,0,3.6-1.6,3.6-3.6v-14c-6.5-1.1-12.8-2.9-18.8-5.3v19.3C35.6,90.6,37.2,92.2,39.1,92.2z"
					/>
			</g>
			<g>
				<g>
					<path class="st1" d="M174.3,35.5c-9.4-7.7-22.2-11.2-34.3-10.1c-6.3,0.6-12.1,2.7-17.6,5.6c-1.8,0.9-15.7,7.5-15.7,8.8V13.1
						c0-2-1.6-3.6-3.6-3.6H91.4c-2,0-3.6,1.6-3.6,3.6v33.4c-5.4,1.2-11,1.8-16.7,1.8c-5.7,0-11.3-0.6-16.7-1.8V13.1
						c0-2-1.6-3.6-3.6-3.6H39.1c-2,0-3.6,1.6-3.6,3.6v26.7C32.2,38,29,36.1,26,33.9c-1.4-1-3.3-0.8-4.5,0.4L13,42.8
						c-1.5,1.5-1.4,4.1,0.4,5.4c0.9,0.6,1.8,1.3,2.6,1.9c6.1,4.2,12.6,7.8,19.6,10.5c6,2.4,12.3,4.2,18.8,5.3c5.4,1,11,1.5,16.7,1.5
						c5.7,0,11.3-0.5,16.7-1.4c6.5-1.1,12.8-2.9,18.8-5.3c4-1.6,7.8-3.4,11.5-5.5c-0.3,1.8-0.5,3.6-0.5,5.5v0.2
						c0,18.2,14.5,32.7,34.1,32.7c19.7,0,34.3-14.7,34.3-32.9v-0.2c0-3.7-0.6-7.3-1.8-10.7C182.4,43.9,178.8,39.2,174.3,35.5z
						 M168.5,60.8c0,9.3-6.1,17.2-16.4,17.2c-9.9,0-16.6-8.1-16.6-17.5v-0.2c0-9.3,6.1-17.2,16.4-17.2c9.9,0,16.6,8.1,16.6,17.5
						V60.8z"/>
				</g>
			</g>
		</g>
	</g>
</g>
</svg>
